<?xml version="1.0" encoding="utf-8"?>
<!-- Generator: Adobe Illustrator 19.0.0, SVG Export Plug-In . SVG Version: 6.00 Build 0)  -->
<svg version="1.1" id="Layer_1" xmlns="http://www.w3.org/2000/svg" xmlns:xlink="http://www.w3.org/1999/xlink" x="0px" y="0px"
	 viewBox="-346 583.5 148 25" style="enable-background:new -346 583.5 148 25;" xml:space="preserve">
<style type="text/css">
	.st0{fill:#FFFFFF;}
</style>
<path class="st0" d="M-309,589.8h5.2c0.7,0,1.4,0.2,2.1,0.5c0.6,0.3,1.1,0.7,1.5,1.3c0.4,0.5,0.5,1.1,0.5,1.8c0,0.7-0.2,1.3-0.5,1.7
	c-0.3,0.5-0.8,0.9-1.3,1.1v0.2c0.7,0.2,1.2,0.6,1.7,1.2c0.4,0.5,0.6,1.2,0.6,2c0,0.7-0.2,1.4-0.6,2c-0.4,0.6-0.9,1-1.6,1.3
	c-0.7,0.3-1.4,0.5-2.2,0.5h-5.4V589.8z M-304,595.3c0.5,0,1-0.2,1.3-0.5c0.3-0.3,0.5-0.7,0.5-1.1c0-0.4-0.2-0.8-0.5-1.1
	c-0.3-0.3-0.7-0.5-1.3-0.5h-2.6v3.2C-306.5,595.3-304,595.3-304,595.3z M-303.7,600.9c0.6,0,1.1-0.2,1.4-0.5
	c0.3-0.3,0.5-0.7,0.5-1.2s-0.2-0.9-0.5-1.3c-0.3-0.3-0.8-0.5-1.5-0.5h-2.7v3.5H-303.7z M-290.8,603.5c-1.3,0-2.5-0.3-3.6-0.9
	c-1-0.6-1.9-1.5-2.5-2.5c-0.6-1.1-0.9-2.2-0.9-3.5c0-1.3,0.3-2.5,0.9-3.5c0.6-1.1,1.5-1.9,2.5-2.5c1.1-0.6,2.2-0.9,3.6-0.9
	c1.3,0,2.5,0.3,3.6,0.9c1,0.6,1.9,1.5,2.5,2.5c0.6,1.1,0.9,2.2,0.9,3.5c0,1.3-0.3,2.5-0.9,3.5c-0.6,1.1-1.5,1.9-2.5,2.5
	C-288.3,603.2-289.4,603.5-290.8,603.5L-290.8,603.5z M-290.8,601.1c0.8,0,1.6-0.2,2.3-0.6c0.7-0.4,1.2-0.9,1.6-1.6
	c0.4-0.7,0.6-1.5,0.6-2.4s-0.2-1.7-0.6-2.4c-0.4-0.7-0.9-1.2-1.6-1.6c-0.7-0.4-1.5-0.6-2.3-0.6c-0.8,0-1.6,0.2-2.2,0.6
	c-0.7,0.4-1.2,0.9-1.6,1.6c-0.4,0.7-0.6,1.5-0.6,2.4c0,0.9,0.2,1.7,0.6,2.4c0.4,0.7,0.9,1.2,1.6,1.6
	C-292.3,600.9-291.5,601.1-290.8,601.1z M-275.4,603.5c-1.3,0-2.5-0.3-3.6-0.9c-1-0.6-1.9-1.5-2.5-2.5c-0.6-1.1-0.9-2.2-0.9-3.5
	c0-1.3,0.3-2.5,0.9-3.5c0.6-1.1,1.5-1.9,2.5-2.5c1.1-0.6,2.2-0.9,3.6-0.9c1.3,0,2.5,0.3,3.6,0.9c1,0.6,1.9,1.5,2.5,2.5
	c0.6,1.1,0.9,2.2,0.9,3.5c0,1.3-0.3,2.5-0.9,3.5c-0.6,1.1-1.5,1.9-2.5,2.5C-272.9,603.2-274.1,603.5-275.4,603.5z M-275.4,601.1
	c0.8,0,1.6-0.2,2.3-0.6c0.7-0.4,1.2-0.9,1.6-1.6c0.4-0.7,0.6-1.5,0.6-2.4s-0.2-1.7-0.6-2.4c-0.4-0.7-0.9-1.2-1.6-1.6
	c-0.7-0.4-1.5-0.6-2.3-0.6c-0.8,0-1.6,0.2-2.2,0.6c-0.7,0.4-1.2,0.9-1.6,1.6c-0.4,0.7-0.6,1.5-0.6,2.4c0,0.9,0.2,1.7,0.6,2.4
	c0.4,0.7,0.9,1.2,1.6,1.6C-277,600.9-276.2,601.1-275.4,601.1z M-266.2,589.8h2.5v5.7h0.1l4.9-5.7h3v0.1l-4.8,5.5l5.3,7.5v0.1h-3.1
	l-4-5.7l-1.5,1.8v3.9h-2.5L-266.2,589.8L-266.2,589.8z M-252.2,589.5h3.2l3.5,9.4h0.1l3.5-9.4h3.3v13.4h-2.5v-6.6l0.1-2.2h-0.1
	l-3.4,8.8h-2l-3.4-8.8h-0.1l0.1,2.2v6.6h-2.5L-252.2,589.5L-252.2,589.5z M-231.4,589.5h2.9l5,13.4h-2.8l-1.1-3.2h-5.1l-1.1,3.2
	h-2.8C-236.4,602.9-231.4,589.5-231.4,589.5z M-228.2,597.4l-1.2-3.4l-0.5-1.6h-0.1l-0.5,1.6l-1.2,3.4H-228.2L-228.2,597.4z
	 M-221.4,589.5h4.9c0.9,0,1.6,0.2,2.3,0.5c0.7,0.4,1.2,0.9,1.6,1.5c0.4,0.6,0.6,1.4,0.6,2.2c0,0.9-0.3,1.6-0.8,2.3
	c-0.5,0.7-1.2,1.2-2,1.4l0,0.1l3.6,5.1v0.2h-2.9l-3.5-5h-1.2v5h-2.5C-221.4,602.9-221.4,589.5-221.4,589.5z M-216.6,595.6
	c0.6,0,1-0.2,1.4-0.5c0.4-0.3,0.5-0.8,0.5-1.3c0-0.5-0.2-0.9-0.5-1.3c-0.3-0.4-0.8-0.5-1.4-0.5h-2.4v3.7L-216.6,595.6L-216.6,595.6z
	 M-209.4,589.5h2.5v5.7h0.1l4.9-5.7h3v0.2l-4.8,5.5l5.3,7.5v0.2h-3.1l-4-5.7l-1.5,1.8v3.9h-2.5L-209.4,589.5L-209.4,589.5z"/>
<path class="st0" d="M-333.5,583.5c-6.9,0-12.5,5.6-12.5,12.5s5.6,12.5,12.5,12.5S-321,603-321,596S-326.6,583.5-333.5,583.5z
	 M-329.9,602.5l-3.5-3.4l-3.5,3.4v-10c0-1.1,0.9-2,2-2h3.1c1.1,0,2,0.9,2,2V602.5z"/>
</svg>
